<?xml version="1.0" encoding="utf-8"?>
<!-- Generator: Adobe Illustrator 21.1.0, SVG Export Plug-In . SVG Version: 6.00 Build 0)  -->
<svg version="1.1" id="Layer_1" xmlns="http://www.w3.org/2000/svg" xmlns:xlink="http://www.w3.org/1999/xlink" x="0px" y="0px"
	 viewBox="0 0 1288 234" style="enable-background:new 0 0 1288 234;" xml:space="preserve">
<style type="text/css">
	.st0{fill:#232323;}
	.st1{fill:#009FE3;}
	.st2{font-family:'AFuturaOrtoBold';}
	.st3{font-size:39.7936px;}
	.st4{font-size:122px;}
	.st5{font-size:45.0203px;}
</style>
<g id="Magnifying_Glass">
	<g id="Layer_30">
		<g id="Layer_45">
			<path class="st0" d="M716.7,154.4c0.3-0.2,1-0.5,1.3-0.7c2.6,1,4.9,2.8,6.3,5.3c-1.5,4-5.2,6.5-7,10.2c-0.3,3.4,1.1,7.2-0.8,10.3
				c-2.1,3.7-5.2,6.8-7.8,10.1c-5.8,7.5-11.6,15.1-17.8,22.2c-4.8,4.9-8.8,10.5-13.2,15.8c-2.1,2.4-4.3,5.2-7.7,5.5
				c-7.2,1.5-14.7-5.6-13.5-12.9c0.9-3.8,3.7-6.8,6-9.8c8.6-10.1,16.1-21.2,25.2-30.8c4.2-4.5,7.4-9.9,12-14c2.6-2.6,6.6-1.9,9.8-3
				C712.4,160.4,714,157,716.7,154.4"/>
		</g>
		<g id="Layer_36">
			<path class="st0" d="M750.4,52.7c15.7-2.1,32.3,2.3,44.4,12.5c-1.3,2.7-3.3,5.1-5.9,6.6c-2.7-1.1-5-2.8-7.6-4.2
				c-15.7-9-36.8-7.4-51.1,3.7c-12.3,9.1-19.7,24.5-19.1,39.7c0,11.1,4.9,21.6,11.7,30.1c8.4,9.5,20.9,14.4,33.2,15.8
				c13.9,1.8,27.8-4.5,37.3-14.4c11.5-11.6,15.7-29.6,11.5-45.3c-0.9-3.7-3.2-7.1-3.5-10.9c1.3-2.8,3.4-5.1,5.6-7.1
				c1.5,1.6,2.4,3.6,3.3,5.5c2.9,6.8,5.6,13.9,5.9,21.3c0.4,14.3-4.1,28.9-13.2,40c-11.1,13.4-28.5,21.7-46,20.8
				c-3.5,0-7.1-0.2-10.4-1.2c-6.7-1.9-13.5-3.9-19.3-7.8c-5.5-3.7-10.8-7.8-14.8-13.2c-3.8-5.1-6.1-11.1-7.9-17.1
				c-2.6-8.4-3.5-17.5-2.2-26.2c2.2-15.5,11.2-29.9,24.1-38.8C733.6,57.4,741.9,54.3,750.4,52.7"/>
		</g>
	</g>
	<g id="Layer_8">
		<path class="st1" d="M846.5,27.6l0.7-0.3c-2.4,3.8-5.6,6.9-8.5,10.3C828.7,49,818.5,60.2,809,72c-9.2,11.5-18.2,23.3-26.6,35.4
			c-6.6,9.5-12.4,19.4-19.2,28.8c-2,2.7-3.8,5.6-6.5,7.7c-1.7,0.3-3.5,0.3-5.2-0.3c-2.2-2.2-3.8-5-5.4-7.6
			c-7.1-11.2-13-23-19.4-34.6c-1.2-2.1-2.5-4.1-3.3-6.4c2.4-4.4,7.3-6.8,12.1-7.3c3.7-0.4,7.5-0.6,11.2-0.1
			c3.4,8.3,5.4,17.2,8.5,25.7c3.2-2.5,5.7-5.8,8.4-8.7c20.4-22.2,40-45.3,63.2-64.8C832.5,34.6,839.5,31,846.5,27.6"/>
	</g>
</g>
<text transform="matrix(1 0 0 1 1103.8994 195.0693)" class="st1 st2 st3">.co.uk</text>
<text transform="matrix(1 0 0 1 613 151.7295)" class="st0 st2 st4">C    mpare</text>
<text transform="matrix(1 0 0 1 89 152.0554)" class="st1 st2 st4">Solicitor-</text>
<text transform="matrix(1 0 0 1 92.9741 44.0791)" class="st0 st2 st5">www.</text>
</svg>
